<?xml version="1.0" encoding="UTF-8"?>
<svg id="Layer_2" data-name="Layer 2" xmlns="http://www.w3.org/2000/svg" viewBox="0 0 697.26 199.88">
  <defs>
    <style>
      .cls-1 {
        fill: #013817;
      }
    </style>
  </defs>
  <g id="Layer_1-2" data-name="Layer 1">
    <g>
      <g>
        <path class="cls-1" d="M4.92,128.77c.46-4.6.69-7.94.69-10.01V20.71c0-2.07-.23-5.41-.69-10.01-.46-4.6-1.15-7.31-2.07-8.11v-.17h13.29l47.81,111.33V20.71c0-2.07-.23-5.41-.69-10.01-.46-4.6-1.15-7.31-2.07-8.11v-.17h9.84v.17c-.92.81-1.61,3.51-2.07,8.11-.46,4.6-.69,7.94-.69,10.01v116.34h-4.83L9.93,13.46v105.29c0,2.07.23,5.41.69,10.01.46,4.6,1.15,7.31,2.07,8.11v.17H2.85v-.17c.92-.8,1.61-3.51,2.07-8.11Z"/>
        <path class="cls-1" d="M231.38,128.77c.46-4.6.69-7.94.69-10.01V20.71c0-2.07-.23-5.41-.69-10.01-.46-4.6-1.15-7.31-2.07-8.11v-.17h29.34c3.91,0,8.14,1.07,12.69,3.19,4.54,2.13,8.43,5.61,11.65,10.44,3.22,4.83,4.83,10.99,4.83,18.47s-2.1,14.3-6.3,20.11c-4.2,5.81-9.41,9.52-15.62,11.13,7.82,1.73,14.67,5.64,20.54,11.74,5.87,6.1,8.8,14.21,8.8,24.34,0,23.25-12.03,34.98-36.08,35.21h-29.86v-.17c.92-.8,1.61-3.51,2.07-8.11ZM267.8,60.76c2.87-2.76,5.18-6.47,6.9-11.13s2.59-9.69,2.59-15.1c0-9.2-1.61-16.31-4.83-21.32-3.22-5.01-7.83-7.51-13.81-7.51l-10.87.17c-1.5,0-2.82.23-3.97.69-1.15.46-1.73,1.32-1.73,2.59v52.47c0,1.27.57,2.13,1.73,2.59,1.15.46,2.47.69,3.97.69h10.87c3.22,0,6.27-1.38,9.15-4.14ZM277.29,127.13c4.95-4.54,7.42-12.97,7.42-25.29,0-7.48-1.44-13.72-4.32-18.73-2.88-5.01-6.36-8.72-10.44-11.13-4.08-2.42-7.91-3.62-11.48-3.62h-10.7c-1.5,0-2.82.23-3.97.69-1.15.46-1.73,1.32-1.73,2.59v58.69c0,1.27.57,2.13,1.73,2.59,1.15.46,2.47.69,3.97.69l11.39.17c7.13.12,13.18-2.1,18.12-6.65Z"/>
        <path class="cls-1" d="M305.08,128.77c.46-4.6.69-7.94.69-10.01V20.71c0-2.07-.23-5.41-.69-10.01-.46-4.6-1.15-7.31-2.07-8.11v-.17h15.53v.17c-.92.81-1.61,3.51-2.07,8.11-.46,4.6-.69,7.94-.69,10.01v109.61c0,1.27.57,2.13,1.73,2.59,1.15.46,2.47.69,3.97.69h27.45c2.07,0,5.41-.46,10.01-1.38,4.6-.92,7.31-2.3,8.11-4.14h.17v8.98h-64.21v-.17c.92-.8,1.61-3.51,2.07-8.11Z"/>
        <path class="cls-1" d="M377.06,128.77c.46-4.6.69-7.94.69-10.01V20.71c0-2.07-.23-5.41-.69-10.01-.46-4.6-1.15-7.31-2.07-8.11v-.17l59.2.17v9.15h-.17c-.81-1.84-3.51-3.22-8.11-4.14-4.6-.92-7.94-1.38-10.01-1.38h-22.44c-1.5,0-2.82.23-3.97.69-1.15.46-1.73,1.32-1.73,2.59v52.13c0,1.27.57,2.13,1.73,2.59,1.15.46,2.47.69,3.97.69h17.78c2.07,0,5.41-.23,10.01-.69,4.6-.46,7.31-1.15,8.11-2.07h.17v8.98h-.17c-.81-.92-3.51-1.61-8.11-2.07-4.6-.46-7.94-.69-10.01-.69h-17.78c-1.5,0-2.82.23-3.97.69-1.15.46-1.73,1.32-1.73,2.59v58.34c0,1.27.57,2.13,1.73,2.59,1.15.46,2.47.69,3.97.69h27.45c2.07,0,5.41-.46,10.01-1.38,4.6-.92,7.31-2.3,8.11-4.14h.17v9.32h-64.21v-.17c.92-.8,1.61-3.51,2.07-8.11Z"/>
        <path class="cls-1" d="M477.17,130.67c-10.82-6.1-19.56-14.5-26.24-25.2-6.68-10.7-10.01-22.61-10.01-35.73s3.34-24.83,10.01-35.47c6.67-10.64,15.45-19.01,26.32-25.11,10.87-6.1,22.29-9.15,34.26-9.15,8.51,0,16.63,1.64,24.34,4.92,7.71,3.28,14.56,7.85,20.54,13.72l-3.62,7.08c-5.18-6.79-11.34-12.14-18.47-16.05-7.14-3.91-14.73-5.87-22.78-5.87-10.01,0-19.65,2.96-28.91,8.89-9.26,5.93-16.74,13.92-22.44,23.99-5.7,10.07-8.54,21.09-8.54,33.05s2.85,23.19,8.54,33.31c5.7,10.13,13.18,18.15,22.44,24.08,9.26,5.93,18.9,8.89,28.91,8.89,7.36,0,14.38-1.67,21.06-5.01,6.67-3.34,12.6-8,17.78-13.98l6.04,4.66c-5.98,5.64-12.86,10.07-20.63,13.29-7.77,3.22-15.85,4.83-24.25,4.83-12.08,0-23.53-3.05-34.35-9.15Z"/>
        <path class="cls-1" d="M592.82,129.76c-10.65-6.24-19.1-14.66-25.34-25.25-6.24-10.59-9.36-22.19-9.36-34.78s3.12-24.22,9.36-34.87c6.24-10.65,14.69-19.09,25.34-25.34,10.65-6.24,22.27-9.36,34.87-9.36s24.22,3.12,34.87,9.36c10.65,6.24,19.09,14.69,25.34,25.34,6.24,10.65,9.36,22.27,9.36,34.87s-3.12,24.19-9.36,34.78c-6.24,10.59-14.69,19.01-25.34,25.25-10.65,6.24-22.27,9.36-34.87,9.36s-24.22-3.12-34.87-9.36ZM656.63,126.49c8.87-5.9,15.92-13.85,21.13-23.88,5.21-10.02,7.81-20.98,7.81-32.89s-2.61-22.9-7.81-32.98c-5.21-10.08-12.23-18.06-21.04-23.96-8.82-5.9-18.5-8.85-29.03-8.85s-20.21,2.95-29.03,8.85c-8.82,5.9-15.83,13.89-21.04,23.96-5.21,10.08-7.82,21.07-7.82,32.98s2.6,22.88,7.82,32.89c5.21,10.02,12.25,17.98,21.13,23.88,8.87,5.9,18.52,8.85,28.94,8.85s20.07-2.95,28.94-8.85Z"/>
        <path class="cls-1" d="M156.68.28c10.19.9,19.71,3.94,28.56,9.13,10.7,6.27,19.19,14.76,25.46,25.46,6.27,10.7,9.41,22.38,9.41,35.04s-3.14,24.31-9.41,34.95c-6.27,10.65-14.76,19.1-25.46,25.37-8.44,4.95-17.48,7.94-27.13,8.99l1.44-4.2c6.95-1.25,13.53-3.94,19.74-8.07,8.92-5.93,15.99-13.92,21.23-23.99,5.24-10.07,7.85-21.09,7.85-33.05s-2.62-23.01-7.85-33.14c-5.24-10.12-12.28-18.15-21.14-24.08-6.56-4.39-13.6-7.15-21.1-8.29l-1.59-4.12ZM142.19,4.39c-7.53,1.13-14.59,3.9-21.16,8.3-8.86,5.93-15.91,13.95-21.14,24.08-5.24,10.13-7.85,21.17-7.85,33.14s2.62,22.99,7.85,33.05c5.23,10.07,12.31,18.07,21.23,23.99,6.22,4.14,12.82,6.83,19.8,8.08l1.36,4.19c-9.65-1.05-18.69-4.04-27.12-8.98-10.7-6.27-19.19-14.73-25.46-25.37-6.27-10.64-9.41-22.29-9.41-34.95s3.13-24.34,9.41-35.04c6.27-10.7,14.76-19.19,25.46-25.46,8.83-5.17,18.32-8.21,28.48-9.12l-1.44,4.1Z"/>
      </g>
      <g>
        <path class="cls-1" d="M33.47,198.91c0,.19-.06.29-.19.29-.57,0-1.5-.03-2.77-.1-1.21-.06-2.1-.1-2.67-.1-.67,0-1.54.03-2.63.1-1.02.06-1.78.1-2.29.1-.13,0-.19-.1-.19-.29s.06-.29.19-.29c1.3,0,2.24-.12,2.82-.36.57-.24.86-.64.86-1.22,0-.45-.18-1.07-.52-1.86l-10.79-23.21.91-.81-9.22,22.16c-.45,1.08-.67,1.97-.67,2.67,0,.92.38,1.59,1.15,2.01s1.96.62,3.58.62c.16,0,.24.1.24.29s-.08.29-.24.29c-.57,0-1.4-.03-2.48-.1-1.21-.06-2.26-.1-3.15-.1-.8,0-1.74.03-2.82.1-.96.06-1.74.1-2.34.1-.16,0-.24-.1-.24-.29s.08-.29.24-.29c.89,0,1.65-.16,2.27-.48.62-.32,1.21-.89,1.77-1.72.56-.83,1.15-2.01,1.79-3.53l9.98-24.02c.06-.1.17-.14.31-.14s.23.05.26.14l11.08,23.78c.73,1.62,1.38,2.86,1.96,3.7.57.84,1.14,1.43,1.7,1.77.56.33,1.2.5,1.93.5.13,0,.19.1.19.29ZM10.12,184.64h12.37l.33.86h-13.13l.43-.86Z"/>
        <path class="cls-1" d="M39.49,170.45l1.05.1-.43,23.69c-.03,1.66.24,2.8.81,3.44.57.64,1.64.96,3.2.96.06,0,.1.1.1.29s-.03.29-.1.29c-.89,0-1.58-.02-2.05-.05l-2.58-.05-2.34.05c-.41.03-1.03.05-1.86.05-.06,0-.1-.1-.1-.29s.03-.29.1-.29c1.34,0,2.28-.33,2.84-.98s.85-1.79.88-3.41l.48-23.78ZM71.96,198.91c0,.19-.05.29-.14.29-.99,0-1.77-.02-2.34-.05l-3.2-.05-2.96.05c-.48.03-1.15.05-2.01.05-.06,0-.1-.1-.1-.29s.03-.29.1-.29c1.11,0,1.93-.09,2.46-.26.52-.17.87-.49,1.05-.93.17-.45.23-1.15.17-2.1l-.86-23.54,1.38-1.77-12.51,28.84c-.06.13-.19.19-.38.19-.16,0-.3-.06-.43-.19l-11.65-25.55c-.51-1.18-1.17-2.04-1.98-2.58-.81-.54-1.79-.81-2.94-.81-.06,0-.1-.1-.1-.29s.03-.29.1-.29l1.62.05c.32.03.73.05,1.24.05s.94-.02,1.29-.05c.35-.03.62-.05.81-.05.45,0,.8.15,1.05.45.25.3.64.98,1.15,2.03l10.94,23.64-1.24,2.01,11.75-26.93c.16-.35.37-.64.64-.86.27-.22.53-.33.79-.33.13,0,.33.02.62.05.29.03.68.05,1.19.05l2.15-.05c.32-.03.81-.05,1.48-.05.06,0,.1.1.1.29s-.03.29-.1.29c-1.66,0-2.83.21-3.51.64-.68.43-1.01,1.28-.98,2.55l.91,22.21c.03.99.15,1.7.36,2.15.21.45.6.75,1.19.91.59.16,1.5.24,2.75.24.1,0,.14.1.14.29Z"/>
        <path class="cls-1" d="M74.73,198.91c0-.19.03-.29.1-.29,1.24,0,2.16-.08,2.75-.24.59-.16.99-.47,1.19-.93.21-.46.31-1.17.31-2.12v-22.11c0-.96-.1-1.66-.31-2.1-.21-.45-.61-.76-1.19-.93-.59-.17-1.5-.26-2.75-.26-.06,0-.1-.1-.1-.29s.03-.29.1-.29h18.91c.29,0,.43.14.43.43l.1,5.78c0,.1-.09.14-.26.14s-.26-.05-.26-.14c0-1.62-.43-2.91-1.29-3.87-.86-.96-1.99-1.43-3.39-1.43h-3.29c-1.21,0-2.1.08-2.67.24-.57.16-.96.46-1.17.91-.21.45-.31,1.15-.31,2.1v21.63c0,.92.1,1.6.31,2.03s.59.72,1.15.88c.56.16,1.46.24,2.7.24h4.39c1.27,0,2.36-.56,3.27-1.67s1.49-2.58,1.74-4.39c0-.1.1-.13.29-.12s.29.07.29.17c-.29,2.01-.43,4.08-.43,6.21,0,.26-.06.44-.17.55-.11.11-.31.17-.6.17h-19.72c-.06,0-.1-.1-.1-.29ZM90.97,184.97c-.61-.57-1.67-.86-3.2-.86h-7.35v-.91h7.5c1.46,0,2.48-.25,3.06-.74.57-.49.86-1.34.86-2.55,0-.06.1-.1.29-.1s.29.03.29.1l-.05,3.77c0,.92.02,1.61.05,2.05l.05,2.24c0,.06-.1.1-.29.1s-.29-.03-.29-.1c0-1.43-.3-2.44-.91-3.01Z"/>
        <path class="cls-1" d="M117.83,170.95c1.32,1.16,1.98,2.7,1.98,4.61,0,1.66-.49,3.18-1.46,4.56s-2.29,2.48-3.96,3.27c-1.67.8-3.48,1.19-5.42,1.19-.13,0-.81-.05-2.05-.14v10.89c0,.99.1,1.7.31,2.15.21.45.6.75,1.17.91.57.16,1.5.24,2.77.24.1,0,.14.1.14.29s-.05.29-.14.29c-.96,0-1.72-.02-2.29-.05l-3.25-.05-3.15.05c-.57.03-1.37.05-2.39.05-.06,0-.1-.1-.1-.29s.03-.29.1-.29c1.27,0,2.2-.08,2.79-.24.59-.16.99-.47,1.22-.93.22-.46.33-1.17.33-2.12v-22.11c0-.96-.1-1.66-.31-2.1-.21-.45-.6-.76-1.19-.93-.59-.17-1.5-.26-2.75-.26-.1,0-.14-.1-.14-.29s.05-.29.14-.29l2.29.05c1.27.06,2.32.1,3.15.1.7,0,1.36-.02,1.98-.05s1.15-.06,1.6-.1c1.15-.1,2.16-.14,3.06-.14,2.39,0,4.24.58,5.56,1.74ZM115.34,171.5c-1.19-1.11-2.92-1.67-5.18-1.67-1.21,0-2.05.22-2.53.67-.48.45-.72,1.38-.72,2.82v10.03c.92.1,1.88.14,2.87.14,2.64,0,4.53-.55,5.66-1.65,1.13-1.1,1.7-2.76,1.7-4.99,0-2.45-.6-4.23-1.79-5.35ZM120.02,195.12c-2.31-2.72-5.09-6.49-8.33-11.29l2.29-.72c2.8,3.98,5.14,7.08,7.02,9.29s3.54,3.8,4.99,4.78,2.87,1.46,4.27,1.46c.1,0,.14.1.14.29s-.05.29-.14.29h-5.54c-.83,0-2.4-1.36-4.7-4.08Z"/>
        <path class="cls-1" d="M139.12,197.48c.21.45.6.75,1.17.91.57.16,1.5.24,2.77.24.06,0,.1.1.1.29s-.03.29-.1.29c-.95,0-1.7-.02-2.24-.05l-3.34-.05-3.2.05c-.57.03-1.35.05-2.34.05-.1,0-.14-.1-.14-.29s.05-.29.14-.29c1.24,0,2.16-.08,2.75-.24.59-.16.99-.47,1.22-.93.22-.46.33-1.17.33-2.12v-22.11c0-.96-.11-1.66-.33-2.1-.22-.45-.63-.76-1.22-.93-.59-.17-1.5-.26-2.75-.26-.1,0-.14-.1-.14-.29s.05-.29.14-.29l2.34.05c1.34.06,2.4.1,3.2.1.89,0,2.01-.03,3.34-.1l2.24-.05c.06,0,.1.1.1.29s-.03.29-.1.29c-1.24,0-2.16.1-2.75.29-.59.19-.99.52-1.19.98s-.31,1.17-.31,2.12v22.01c0,.99.1,1.7.31,2.15Z"/>
        <path class="cls-1" d="M169.8,169.28c1.34.3,2.75.84,4.25,1.6.19.13.31.23.36.31s.09.33.12.74l.57,5.44c0,.1-.09.15-.26.17-.17.02-.28-.02-.31-.12-.7-2.64-1.86-4.62-3.49-5.94s-3.76-1.98-6.4-1.98c-2.8,0-5.26.59-7.38,1.77-2.12,1.18-3.76,2.86-4.92,5.04-1.16,2.18-1.74,4.72-1.74,7.62,0,2.71.64,5.23,1.93,7.57,1.29,2.34,3.02,4.2,5.21,5.59,2.18,1.39,4.51,2.08,6.99,2.08,5.28,0,8.66-2.59,10.12-7.78,0-.06.08-.1.24-.1.22,0,.33.05.33.14l-.38,5.06c-.03.38-.08.62-.14.72-.06.1-.19.21-.38.33-1.66.86-3.21,1.46-4.66,1.79-1.45.33-3.18.5-5.18.5-3.31,0-6.26-.66-8.86-1.98-2.59-1.32-4.62-3.18-6.09-5.59-1.46-2.4-2.2-5.16-2.2-8.28s.73-5.64,2.2-7.93c1.46-2.29,3.49-4.07,6.09-5.32s5.53-1.89,8.81-1.89c2.1,0,3.82.15,5.16.45Z"/>
        <path class="cls-1" d="M211.16,198.91c0,.19-.06.29-.19.29-.57,0-1.5-.03-2.77-.1-1.21-.06-2.1-.1-2.67-.1-.67,0-1.54.03-2.63.1-1.02.06-1.78.1-2.29.1-.13,0-.19-.1-.19-.29s.06-.29.19-.29c1.3,0,2.24-.12,2.82-.36.57-.24.86-.64.86-1.22,0-.45-.18-1.07-.52-1.86l-10.79-23.21.91-.81-9.22,22.16c-.45,1.08-.67,1.97-.67,2.67,0,.92.38,1.59,1.15,2.01s1.96.62,3.58.62c.16,0,.24.1.24.29s-.08.29-.24.29c-.57,0-1.4-.03-2.48-.1-1.21-.06-2.26-.1-3.15-.1-.8,0-1.74.03-2.82.1-.96.06-1.74.1-2.34.1-.16,0-.24-.1-.24-.29s.08-.29.24-.29c.89,0,1.65-.16,2.27-.48.62-.32,1.21-.89,1.77-1.72.56-.83,1.15-2.01,1.79-3.53l9.98-24.02c.06-.1.17-.14.31-.14s.23.05.26.14l11.08,23.78c.73,1.62,1.38,2.86,1.96,3.7.57.84,1.14,1.43,1.7,1.77.56.33,1.2.5,1.93.5.13,0,.19.1.19.29ZM187.81,184.64h12.37l.33.86h-13.13l.43-.86Z"/>
        <path class="cls-1" d="M216.6,170.45l1.05.1v23.69c0,1.62.27,2.76.81,3.41.54.65,1.48.98,2.82.98.1,0,.14.1.14.29s-.05.29-.14.29c-.76,0-1.35-.02-1.77-.05l-2.29-.05-2.34.05c-.41.03-1.03.05-1.86.05-.06,0-.1-.1-.1-.29s.03-.29.1-.29c1.37,0,2.31-.32,2.82-.96.51-.64.76-1.78.76-3.44v-23.78ZM240.38,199.87c-.16.03-.27.02-.33-.05l-21.58-26.55c-1.02-1.24-1.95-2.11-2.79-2.6-.84-.49-1.68-.74-2.51-.74-.1,0-.14-.1-.14-.29s.05-.29.14-.29l1.72.05c.35.03.84.05,1.48.05.54,0,.99-.02,1.34-.05.35-.03.62-.05.81-.05.22,0,.41.06.55.17s.31.34.5.69c.35.57.73,1.11,1.15,1.62l19.53,24.26.38,3.63c0,.06-.08.11-.24.14ZM240.62,199.72l-1.05-1.48v-23.88c0-1.62-.26-2.77-.76-3.44-.51-.67-1.43-1-2.77-1-.06,0-.1-.1-.1-.29s.03-.29.1-.29l1.81.05c.96.06,1.72.1,2.29.1.54,0,1.32-.03,2.34-.1l1.86-.05c.1,0,.14.1.14.29s-.05.29-.14.29c-1.37,0-2.33.33-2.89,1-.56.67-.84,1.81-.84,3.44v25.36Z"/>
        <path class="cls-1" d="M266.67,197.65c-2.56-1.42-4.53-3.33-5.9-5.73-1.37-2.4-2.05-5.04-2.05-7.9,0-3.09.77-5.78,2.32-8.07,1.54-2.29,3.66-4.05,6.35-5.28,2.69-1.23,5.71-1.84,9.05-1.84,1.75,0,3.36.18,4.82.52,1.46.35,2.71.84,3.72,1.48.22.13.35.24.38.33.03.1.06.33.1.72l.57,5.35c0,.1-.09.16-.26.19-.18.03-.28,0-.31-.1-.7-2.64-1.81-4.6-3.32-5.87-1.51-1.27-3.64-1.91-6.38-1.91s-5.01.57-7.11,1.7c-2.1,1.13-3.76,2.74-4.97,4.82-1.21,2.09-1.81,4.53-1.81,7.33,0,2.64.55,5.16,1.65,7.55,1.1,2.39,2.78,4.35,5.06,5.87,2.28,1.53,5.09,2.29,8.43,2.29,2.36,0,4.02-.45,4.99-1.36s1.46-2.41,1.46-4.51c0-1.65-.11-2.81-.33-3.46-.22-.65-.7-1.09-1.43-1.31-.73-.22-2.01-.33-3.82-.33-.19,0-.29-.13-.29-.38,0-.1.02-.18.07-.26s.1-.12.17-.12c2.45.16,4.42.24,5.92.24s2.96-.05,4.58-.14c.06,0,.12.04.17.12.05.08.07.15.07.21,0,.22-.08.33-.24.33-.83-.03-1.42.07-1.77.31-.35.24-.57.72-.67,1.46-.1.73-.14,2.01-.14,3.82,0,1.43.05,2.45.17,3.06.11.61.17.99.17,1.15,0,.19-.03.32-.1.38s-.21.13-.43.19c-3.85.86-7.13,1.29-9.84,1.29-3.47,0-6.49-.71-9.05-2.12Z"/>
        <path class="cls-1" d="M309.88,170.95c1.32,1.16,1.98,2.7,1.98,4.61,0,1.66-.49,3.18-1.46,4.56s-2.29,2.48-3.96,3.27c-1.67.8-3.48,1.19-5.42,1.19-.13,0-.81-.05-2.05-.14v10.89c0,.99.1,1.7.31,2.15.21.45.6.75,1.17.91.57.16,1.5.24,2.77.24.1,0,.14.1.14.29s-.05.29-.14.29c-.96,0-1.72-.02-2.29-.05l-3.25-.05-3.15.05c-.57.03-1.37.05-2.39.05-.06,0-.1-.1-.1-.29s.03-.29.1-.29c1.27,0,2.2-.08,2.79-.24.59-.16.99-.47,1.22-.93.22-.46.33-1.17.33-2.12v-22.11c0-.96-.1-1.66-.31-2.1-.21-.45-.6-.76-1.19-.93-.59-.17-1.5-.26-2.75-.26-.1,0-.14-.1-.14-.29s.05-.29.14-.29l2.29.05c1.27.06,2.32.1,3.15.1.7,0,1.36-.02,1.98-.05s1.15-.06,1.6-.1c1.15-.1,2.16-.14,3.06-.14,2.39,0,4.24.58,5.56,1.74ZM307.4,171.5c-1.19-1.11-2.92-1.67-5.18-1.67-1.21,0-2.05.22-2.53.67-.48.45-.72,1.38-.72,2.82v10.03c.92.1,1.88.14,2.87.14,2.64,0,4.53-.55,5.66-1.65,1.13-1.1,1.7-2.76,1.7-4.99,0-2.45-.6-4.23-1.79-5.35ZM312.08,195.12c-2.31-2.72-5.09-6.49-8.33-11.29l2.29-.72c2.8,3.98,5.14,7.08,7.02,9.29s3.54,3.8,4.99,4.78,2.87,1.46,4.27,1.46c.1,0,.14.1.14.29s-.05.29-.14.29h-5.54c-.83,0-2.4-1.36-4.7-4.08Z"/>
        <path class="cls-1" d="M329.03,197.7c-2.31-1.38-4.09-3.26-5.35-5.63-1.26-2.37-1.89-4.96-1.89-7.76,0-3.28.83-6.09,2.48-8.43,1.65-2.34,3.78-4.1,6.38-5.28,2.59-1.18,5.24-1.77,7.95-1.77,3.02,0,5.68.71,7.97,2.12,2.29,1.42,4.05,3.29,5.28,5.61,1.23,2.32,1.84,4.79,1.84,7.4,0,2.9-.76,5.55-2.29,7.97-1.53,2.42-3.57,4.33-6.14,5.73-2.56,1.4-5.34,2.1-8.33,2.1s-5.6-.69-7.9-2.08ZM344.77,197.24c1.81-1.05,3.25-2.59,4.3-4.63s1.58-4.47,1.58-7.31c0-2.99-.58-5.66-1.74-8-1.16-2.34-2.8-4.16-4.92-5.47s-4.58-1.96-7.38-1.96c-3.69,0-6.57,1.15-8.64,3.44-2.07,2.29-3.1,5.41-3.1,9.36,0,2.96.58,5.68,1.74,8.14,1.16,2.47,2.79,4.42,4.89,5.85,2.1,1.43,4.49,2.15,7.16,2.15,2.26,0,4.3-.52,6.11-1.58Z"/>
        <path class="cls-1" d="M371.12,199.34c-.26,0-.43-.06-.52-.19l-11.79-25.83c-.54-1.24-1.12-2.12-1.74-2.63-.62-.51-1.43-.76-2.41-.76-.1,0-.14-.1-.14-.29s.05-.29.14-.29l2.05.05c.89.06,1.56.1,2.01.1.92,0,2.02-.03,3.29-.1l2.05-.05c.1,0,.14.1.14.29s-.05.29-.14.29c-.99,0-1.74.11-2.24.33-.51.22-.76.62-.76,1.19,0,.32.13.78.38,1.39l10.98,23.69-1.62,2.05,6.45-15.85.67.96-6.26,15.47c-.03.13-.21.19-.53.19ZM399.73,169.64c0,.19-.05.29-.14.29-1.08,0-1.98.23-2.7.69-.72.46-1.35,1.33-1.89,2.6l-10.51,25.93c-.03.13-.21.19-.53.19-.26,0-.43-.06-.52-.19l-11.79-25.83c-.54-1.24-1.12-2.12-1.74-2.63-.62-.51-1.43-.76-2.41-.76-.1,0-.14-.1-.14-.29s.05-.29.14-.29l2.05.05c.89.06,1.56.1,2.01.1.67,0,1.45-.03,2.34-.1l1.34-.05c.1,0,.14.1.14.29s-.05.29-.14.29c-.64,0-1.08.05-1.34.14-.26.1-.38.29-.38.57s.26,1.02.76,2.2l10.98,23.69-1.62,2.05,10.41-25.64c.22-.48.33-.94.33-1.38,0-.57-.3-.99-.88-1.24-.59-.25-1.57-.38-2.94-.38-.1,0-.14-.1-.14-.29s.05-.29.14-.29l1.91.05c1.08.06,2.04.1,2.86.1.67,0,1.42-.03,2.24-.1l2.01-.05c.1,0,.14.1.14.29ZM381.82,171.27c0-.48-.18-.82-.55-1.03s-.95-.31-1.74-.31c-.06,0-.1-.1-.1-.29s.03-.29.1-.29l1.34.05c.64.06,1.24.1,1.81.1.64,0,1.37-.03,2.2-.1l2.05-.05c.06,0,.1.1.1.29s-.03.29-.1.29c-1.08,0-1.99.23-2.72.69-.73.46-1.35,1.33-1.86,2.6l-4.25,10.46-.67-.96,3.96-9.79c.29-.67.43-1.23.43-1.67Z"/>
        <path class="cls-1" d="M404.88,170.45l1.05.1v23.69c0,1.62.27,2.76.81,3.41.54.65,1.48.98,2.82.98.1,0,.14.1.14.29s-.05.29-.14.29c-.76,0-1.35-.02-1.77-.05l-2.29-.05-2.34.05c-.41.03-1.03.05-1.86.05-.06,0-.1-.1-.1-.29s.03-.29.1-.29c1.37,0,2.31-.32,2.82-.96.51-.64.76-1.78.76-3.44v-23.78ZM428.67,199.87c-.16.03-.27.02-.33-.05l-21.58-26.55c-1.02-1.24-1.95-2.11-2.79-2.6-.84-.49-1.68-.74-2.51-.74-.1,0-.14-.1-.14-.29s.05-.29.14-.29l1.72.05c.35.03.84.05,1.48.05.54,0,.99-.02,1.34-.05.35-.03.62-.05.81-.05.22,0,.41.06.55.17s.31.34.5.69c.35.57.73,1.11,1.15,1.62l19.53,24.26.38,3.63c0,.06-.08.11-.24.14ZM428.9,199.72l-1.05-1.48v-23.88c0-1.62-.26-2.77-.76-3.44-.51-.67-1.43-1-2.77-1-.06,0-.1-.1-.1-.29s.03-.29.1-.29l1.81.05c.96.06,1.72.1,2.29.1.54,0,1.32-.03,2.34-.1l1.86-.05c.1,0,.14.1.14.29s-.05.29-.14.29c-1.37,0-2.33.33-2.89,1-.56.67-.84,1.81-.84,3.44v25.36Z"/>
        <path class="cls-1" d="M455.74,199.25c-.45-.03-1-.06-1.65-.1-.65-.03-1.38-.05-2.17-.05l-3.15.05c-.57.03-1.37.05-2.39.05-.06,0-.1-.1-.1-.29s.03-.29.1-.29c1.24,0,2.16-.08,2.75-.24.59-.16.99-.47,1.22-.93.22-.46.33-1.17.33-2.12v-22.11c0-.96-.1-1.66-.31-2.1-.21-.45-.61-.76-1.19-.93-.59-.17-1.5-.26-2.75-.26-.06,0-.1-.1-.1-.29s.03-.29.1-.29l2.34.05c1.34.06,2.39.1,3.15.1,1.11,0,2.24-.05,3.39-.14,1.4-.06,2.36-.1,2.87-.1,3.34,0,6.3.64,8.88,1.91,2.58,1.27,4.58,3.01,5.99,5.2,1.42,2.2,2.12,4.66,2.12,7.4,0,3.09-.74,5.82-2.22,8.19s-3.46,4.2-5.95,5.49c-2.48,1.29-5.2,1.93-8.17,1.93-.92,0-1.96-.05-3.1-.14ZM465.48,197.15c2.07-1.08,3.68-2.67,4.85-4.78,1.16-2.1,1.74-4.62,1.74-7.54s-.55-5.33-1.65-7.59c-1.1-2.26-2.67-4.05-4.73-5.37-2.05-1.32-4.42-1.98-7.09-1.98-1.4,0-2.48.08-3.22.24-.75.16-1.3.49-1.65.98-.35.49-.52,1.23-.52,2.22v21.49c0,.96.14,1.72.43,2.29s.8.99,1.53,1.27c.73.27,1.8.41,3.2.41,2.67,0,5.05-.54,7.12-1.62Z"/>
        <path class="cls-1" d="M486.8,197.48c.21.45.6.75,1.17.91.57.16,1.5.24,2.77.24.06,0,.1.1.1.29s-.03.29-.1.29c-.95,0-1.7-.02-2.24-.05l-3.34-.05-3.2.05c-.57.03-1.35.05-2.34.05-.1,0-.14-.1-.14-.29s.05-.29.14-.29c1.24,0,2.16-.08,2.75-.24.59-.16.99-.47,1.22-.93.22-.46.33-1.17.33-2.12v-22.11c0-.96-.11-1.66-.33-2.1-.22-.45-.63-.76-1.22-.93-.59-.17-1.5-.26-2.75-.26-.1,0-.14-.1-.14-.29s.05-.29.14-.29l2.34.05c1.34.06,2.4.1,3.2.1.89,0,2.01-.03,3.34-.1l2.24-.05c.06,0,.1.1.1.29s-.03.29-.1.29c-1.24,0-2.16.1-2.75.29-.59.19-.99.52-1.19.98s-.31,1.17-.31,2.12v22.01c0,.99.1,1.7.31,2.15Z"/>
        <path class="cls-1" d="M526.22,198.91c0,.19-.06.29-.19.29-.57,0-1.5-.03-2.77-.1-1.21-.06-2.1-.1-2.67-.1-.67,0-1.54.03-2.63.1-1.02.06-1.78.1-2.29.1-.13,0-.19-.1-.19-.29s.06-.29.19-.29c1.3,0,2.24-.12,2.82-.36.57-.24.86-.64.86-1.22,0-.45-.18-1.07-.52-1.86l-10.79-23.21.91-.81-9.22,22.16c-.45,1.08-.67,1.97-.67,2.67,0,.92.38,1.59,1.15,2.01s1.96.62,3.58.62c.16,0,.24.1.24.29s-.08.29-.24.29c-.57,0-1.4-.03-2.48-.1-1.21-.06-2.26-.1-3.15-.1-.8,0-1.74.03-2.82.1-.96.06-1.74.1-2.34.1-.16,0-.24-.1-.24-.29s.08-.29.24-.29c.89,0,1.65-.16,2.27-.48.62-.32,1.21-.89,1.77-1.72.56-.83,1.15-2.01,1.79-3.53l9.98-24.02c.06-.1.17-.14.31-.14s.23.05.26.14l11.08,23.78c.73,1.62,1.38,2.86,1.96,3.7.57.84,1.14,1.43,1.7,1.77.56.33,1.2.5,1.93.5.13,0,.19.1.19.29ZM502.87,184.64h12.37l.33.86h-13.13l.43-.86Z"/>
        <path class="cls-1" d="M532.24,170.45l1.05.1-.43,23.69c-.03,1.66.24,2.8.81,3.44.57.64,1.64.96,3.2.96.06,0,.1.1.1.29s-.03.29-.1.29c-.89,0-1.58-.02-2.05-.05l-2.58-.05-2.34.05c-.41.03-1.03.05-1.86.05-.06,0-.1-.1-.1-.29s.03-.29.1-.29c1.34,0,2.28-.33,2.84-.98s.85-1.79.88-3.41l.48-23.78ZM564.71,198.91c0,.19-.05.29-.14.29-.99,0-1.77-.02-2.34-.05l-3.2-.05-2.96.05c-.48.03-1.15.05-2.01.05-.06,0-.1-.1-.1-.29s.03-.29.1-.29c1.11,0,1.93-.09,2.46-.26.52-.17.87-.49,1.05-.93.17-.45.23-1.15.17-2.1l-.86-23.54,1.38-1.77-12.51,28.84c-.06.13-.19.19-.38.19-.16,0-.3-.06-.43-.19l-11.65-25.55c-.51-1.18-1.17-2.04-1.98-2.58-.81-.54-1.79-.81-2.94-.81-.06,0-.1-.1-.1-.29s.03-.29.1-.29l1.62.05c.32.03.73.05,1.24.05s.94-.02,1.29-.05c.35-.03.62-.05.81-.05.45,0,.8.15,1.05.45.25.3.64.98,1.15,2.03l10.94,23.64-1.24,2.01,11.75-26.93c.16-.35.37-.64.64-.86.27-.22.53-.33.79-.33.13,0,.33.02.62.05.29.03.68.05,1.19.05l2.15-.05c.32-.03.81-.05,1.48-.05.06,0,.1.1.1.29s-.03.29-.1.29c-1.66,0-2.83.21-3.51.64-.68.43-1.01,1.28-.98,2.55l.91,22.21c.03.99.15,1.7.36,2.15.21.45.6.75,1.19.91.59.16,1.5.24,2.75.24.1,0,.14.1.14.29Z"/>
        <path class="cls-1" d="M575.05,197.7c-2.31-1.38-4.09-3.26-5.35-5.63-1.26-2.37-1.89-4.96-1.89-7.76,0-3.28.83-6.09,2.48-8.43,1.65-2.34,3.78-4.1,6.38-5.28,2.59-1.18,5.24-1.77,7.95-1.77,3.02,0,5.68.71,7.97,2.12,2.29,1.42,4.05,3.29,5.28,5.61,1.23,2.32,1.84,4.79,1.84,7.4,0,2.9-.76,5.55-2.29,7.97-1.53,2.42-3.57,4.33-6.14,5.73-2.56,1.4-5.34,2.1-8.33,2.1s-5.6-.69-7.9-2.08ZM590.78,197.24c1.81-1.05,3.25-2.59,4.3-4.63s1.58-4.47,1.58-7.31c0-2.99-.58-5.66-1.74-8-1.16-2.34-2.8-4.16-4.92-5.47s-4.58-1.96-7.38-1.96c-3.69,0-6.57,1.15-8.64,3.44-2.07,2.29-3.1,5.41-3.1,9.36,0,2.96.58,5.68,1.74,8.14,1.16,2.47,2.79,4.42,4.89,5.85,2.1,1.43,4.49,2.15,7.16,2.15,2.26,0,4.3-.52,6.11-1.58Z"/>
        <path class="cls-1" d="M607.49,170.45l1.05.1v23.69c0,1.62.27,2.76.81,3.41.54.65,1.48.98,2.82.98.1,0,.14.1.14.29s-.05.29-.14.29c-.76,0-1.35-.02-1.77-.05l-2.29-.05-2.34.05c-.41.03-1.03.05-1.86.05-.06,0-.1-.1-.1-.29s.03-.29.1-.29c1.37,0,2.31-.32,2.82-.96.51-.64.76-1.78.76-3.44v-23.78ZM631.27,199.87c-.16.03-.27.02-.33-.05l-21.58-26.55c-1.02-1.24-1.95-2.11-2.79-2.6-.84-.49-1.68-.74-2.51-.74-.1,0-.14-.1-.14-.29s.05-.29.14-.29l1.72.05c.35.03.84.05,1.48.05.54,0,.99-.02,1.34-.05.35-.03.62-.05.81-.05.22,0,.41.06.55.17s.31.34.5.69c.35.57.73,1.11,1.15,1.62l19.53,24.26.38,3.63c0,.06-.08.11-.24.14ZM631.51,199.72l-1.05-1.48v-23.88c0-1.62-.26-2.77-.76-3.44-.51-.67-1.43-1-2.77-1-.06,0-.1-.1-.1-.29s.03-.29.1-.29l1.81.05c.96.06,1.72.1,2.29.1.54,0,1.32-.03,2.34-.1l1.86-.05c.1,0,.14.1.14.29s-.05.29-.14.29c-1.37,0-2.33.33-2.89,1-.56.67-.84,1.81-.84,3.44v25.36Z"/>
        <path class="cls-1" d="M647.37,199.25c-.45-.03-1-.06-1.65-.1-.65-.03-1.38-.05-2.17-.05l-3.15.05c-.57.03-1.37.05-2.39.05-.06,0-.1-.1-.1-.29s.03-.29.1-.29c1.24,0,2.16-.08,2.75-.24.59-.16.99-.47,1.22-.93.22-.46.33-1.17.33-2.12v-22.11c0-.96-.1-1.66-.31-2.1-.21-.45-.61-.76-1.19-.93-.59-.17-1.5-.26-2.75-.26-.06,0-.1-.1-.1-.29s.03-.29.1-.29l2.34.05c1.34.06,2.39.1,3.15.1,1.11,0,2.24-.05,3.39-.14,1.4-.06,2.36-.1,2.87-.1,3.34,0,6.3.64,8.88,1.91,2.58,1.27,4.58,3.01,5.99,5.2,1.42,2.2,2.12,4.66,2.12,7.4,0,3.09-.74,5.82-2.22,8.19s-3.46,4.2-5.95,5.49c-2.48,1.29-5.2,1.93-8.17,1.93-.92,0-1.96-.05-3.1-.14ZM657.11,197.15c2.07-1.08,3.68-2.67,4.85-4.78,1.16-2.1,1.74-4.62,1.74-7.54s-.55-5.33-1.65-7.59c-1.1-2.26-2.67-4.05-4.73-5.37-2.05-1.32-4.42-1.98-7.09-1.98-1.4,0-2.48.08-3.22.24-.75.16-1.3.49-1.65.98-.35.49-.52,1.23-.52,2.22v21.49c0,.96.14,1.72.43,2.29s.8.99,1.53,1.27c.73.27,1.8.41,3.2.41,2.67,0,5.05-.54,7.12-1.62Z"/>
        <path class="cls-1" d="M676.45,178.43c.6.92,1.34,1.7,2.22,2.32.88.62,2.09,1.39,3.65,2.32,1.65.99,2.94,1.81,3.84,2.46s1.69,1.49,2.34,2.51c.65,1.02.98,2.24.98,3.68s-.37,2.86-1.1,4.08c-.73,1.23-1.82,2.2-3.27,2.91-1.45.72-3.22,1.07-5.32,1.07-1.11,0-2.17-.12-3.18-.36-1-.24-2.11-.66-3.32-1.27-.16-.1-.26-.21-.31-.33-.05-.13-.09-.32-.12-.57l-.72-6.21v-.05c0-.13.08-.2.24-.21.16-.02.25.04.29.17.32,2.2,1.16,4.11,2.53,5.73,1.37,1.62,3.25,2.43,5.63,2.43,1.69,0,3.11-.46,4.27-1.38s1.74-2.37,1.74-4.35c0-1.43-.32-2.67-.95-3.7-.64-1.03-1.41-1.89-2.32-2.58-.91-.68-2.14-1.49-3.7-2.41-1.53-.89-2.73-1.67-3.61-2.34-.88-.67-1.62-1.5-2.24-2.51-.62-1-.93-2.2-.93-3.61,0-1.59.41-2.94,1.22-4.06.81-1.11,1.87-1.95,3.18-2.51,1.3-.56,2.71-.84,4.2-.84,1.75,0,3.56.38,5.44,1.15.48.19.72.46.72.81l.43,5.06c0,.13-.09.19-.26.19s-.28-.06-.31-.19c-.13-1.65-.75-3.14-1.86-4.44s-2.71-1.96-4.78-1.96c-1.91,0-3.31.56-4.2,1.67-.89,1.11-1.34,2.45-1.34,4.01,0,1.27.3,2.37.91,3.29Z"/>
      </g>
    </g>
  </g>
</svg>