<?xml version="1.0" encoding="UTF-8"?>
<svg id="Layer_2" data-name="Layer 2" xmlns="http://www.w3.org/2000/svg" viewBox="0 0 2959.48 848.4">
  <defs>
    <style>
      .cls-1 {
        fill: #013817;
        stroke-width: 0px;
      }
    </style>
  </defs>
  <g id="Layer_1-2" data-name="Layer 1">
    <g>
      <g>
        <path class="cls-1" d="M20.89,546.55c1.95-19.53,2.93-33.7,2.93-42.49V87.92c0-8.79-.98-22.95-2.93-42.49-1.96-19.53-4.88-31.01-8.79-34.43v-.73h56.42l202.94,472.55V87.92c0-8.79-.99-22.95-2.93-42.49-1.96-19.53-4.89-31.01-8.79-34.43v-.73h41.76v.73c-3.92,3.42-6.84,14.9-8.79,34.43-1.96,19.54-2.93,33.7-2.93,42.49v493.8h-20.51L42.14,57.14v446.91c0,8.79.97,22.96,2.93,42.49,1.94,19.54,4.88,31.02,8.79,34.43v.73H12.1v-.73c3.91-3.41,6.83-14.89,8.79-34.43Z"/>
        <path class="cls-1" d="M982.09,546.55c1.94-19.53,2.93-33.7,2.93-42.49V87.92c0-8.79-.99-22.95-2.93-42.49-1.96-19.53-4.89-31.01-8.79-34.43v-.73h124.55c16.6,0,34.55,4.52,53.85,13.55,19.29,9.04,35.77,23.81,49.45,44.33,13.67,20.51,20.51,46.65,20.51,78.39s-8.92,60.7-26.74,85.35c-17.83,24.67-39.93,40.42-66.3,47.26,33.21,7.32,62.27,23.94,87.18,49.82,24.91,25.89,37.37,60.33,37.37,103.3,0,98.67-51.05,148.48-153.12,149.46h-126.74v-.73c3.9-3.41,6.83-14.89,8.79-34.43ZM1136.67,257.89c12.2-11.72,21.98-27.48,29.3-47.26s10.99-41.14,10.99-64.11c0-39.07-6.85-69.23-20.51-90.48-13.68-21.25-33.22-31.87-58.61-31.87l-46.16.73c-6.35,0-11.97.98-16.85,2.93-4.88,1.96-7.32,5.62-7.32,10.99v222.72c0,5.38,2.44,9.04,7.32,10.99,4.88,1.96,10.5,2.93,16.85,2.93h46.16c13.67,0,26.61-5.86,38.83-17.58ZM1176.97,539.59c20.99-19.29,31.5-55.06,31.5-107.33,0-31.74-6.11-58.24-18.32-79.49-12.21-21.25-26.99-37-44.33-47.25-17.34-10.26-33.59-15.39-48.72-15.39h-45.42c-6.35,0-11.97.99-16.85,2.93-4.88,1.96-7.32,5.62-7.32,10.99v249.1c0,5.38,2.44,9.04,7.32,10.99,4.88,1.96,10.5,2.93,16.85,2.93l48.35.73c30.28.49,55.92-8.91,76.93-28.21Z"/>
        <path class="cls-1" d="M1294.92,546.55c1.94-19.53,2.93-33.7,2.93-42.49V87.92c0-8.79-.99-22.95-2.93-42.49-1.96-19.53-4.89-31.01-8.79-34.43v-.73h65.94v.73c-3.92,3.42-6.85,14.9-8.8,34.43-1.96,19.54-2.93,33.7-2.93,42.49v465.22c0,5.38,2.44,9.04,7.32,10.99,4.88,1.96,10.5,2.93,16.85,2.93h116.49c8.79,0,22.95-1.95,42.49-5.86,19.53-3.9,31.01-9.76,34.43-17.58h.74v38.1h-272.54v-.73c3.9-3.41,6.83-14.89,8.79-34.43Z"/>
        <path class="cls-1" d="M1600.42,546.55c1.94-19.53,2.93-33.7,2.93-42.49V87.92c0-8.79-.99-22.95-2.93-42.49-1.96-19.53-4.89-31.01-8.79-34.43v-.73l251.29.73v38.83h-.73c-3.42-7.81-14.91-13.67-34.43-17.58-19.54-3.9-33.7-5.86-42.49-5.86h-95.24c-6.35,0-11.97.98-16.85,2.93-4.88,1.96-7.32,5.62-7.32,10.99v221.26c0,5.38,2.44,9.04,7.32,10.99,4.88,1.96,10.5,2.93,16.85,2.93h75.46c8.79,0,22.95-.97,42.49-2.93,19.53-1.95,31.01-4.88,34.43-8.79h.73v38.1h-.73c-3.42-3.9-14.91-6.83-34.43-8.79-19.54-1.95-33.7-2.93-42.49-2.93h-75.46c-6.35,0-11.97.99-16.85,2.93-4.88,1.96-7.32,5.62-7.32,10.99v247.63c0,5.38,2.44,9.04,7.32,10.99,4.88,1.96,10.5,2.93,16.85,2.93h116.49c8.79,0,22.95-1.95,42.49-5.86,19.53-3.9,31.01-9.76,34.43-17.58h.74v39.56h-272.54v-.73c3.9-3.41,6.83-14.89,8.79-34.43Z"/>
        <path class="cls-1" d="M2025.34,554.61c-45.91-25.88-83.04-61.54-111.36-106.96-28.33-45.42-42.49-95.97-42.49-151.66s14.16-105.37,42.49-150.56c28.32-45.17,65.57-80.71,111.73-106.6,46.16-25.88,94.63-38.83,145.43-38.83,36.14,0,70.57,6.96,103.3,20.88,32.72,13.92,61.78,33.33,87.19,58.24l-15.39,30.04c-21.98-28.81-48.11-51.52-78.39-68.14-30.29-16.6-62.53-24.91-96.71-24.91-42.49,0-83.41,12.58-122.72,37.73-39.32,25.16-71.07,59.1-95.25,101.84-24.18,42.74-36.27,89.51-36.27,140.3s12.09,98.43,36.27,141.4c24.18,42.99,55.92,77.05,95.25,102.2,39.31,25.16,80.22,37.73,122.72,37.73,31.25,0,61.05-7.08,89.38-21.25,28.32-14.16,53.48-33.94,75.46-59.34l25.64,19.78c-25.4,23.94-54.58,42.74-87.55,56.41-32.97,13.67-67.29,20.51-102.94,20.51-51.28,0-99.89-12.94-145.8-38.83Z"/>
        <path class="cls-1" d="M2516.19,550.74c-45.2-26.49-81.05-62.21-107.54-107.17-26.49-44.95-39.73-94.17-39.73-147.64s13.24-102.8,39.73-148c26.49-45.2,62.34-81.04,107.54-107.54,45.2-26.49,94.53-39.73,148.01-39.73s102.8,13.25,148,39.73c45.2,26.5,81.04,62.34,107.54,107.54,26.49,45.2,39.74,94.54,39.74,148s-13.25,102.69-39.74,147.64c-26.5,44.96-62.34,80.69-107.54,107.17-45.2,26.5-94.54,39.73-148,39.73s-102.8-13.24-148.01-39.73ZM2787.05,536.89c37.66-25.03,67.56-58.81,89.68-101.34,22.11-42.53,33.17-89.06,33.17-139.62s-11.06-97.21-33.17-139.98c-22.12-42.76-51.89-76.67-89.31-101.71-37.44-25.03-78.5-37.55-123.21-37.55s-85.79,12.52-123.21,37.55c-37.44,25.04-67.2,58.94-89.31,101.71-22.12,42.78-33.17,89.44-33.17,139.98s11.05,97.09,33.17,139.62c22.11,42.54,52.01,76.31,89.68,101.34,37.66,25.04,78.62,37.55,122.85,37.55s85.17-12.51,122.85-37.55Z"/>
        <path class="cls-1" d="M665.01,1.19c43.25,3.81,83.66,16.72,121.23,38.74,45.42,26.63,81.44,62.64,108.06,108.06,26.62,45.42,39.93,95,39.93,148.73s-13.31,103.19-39.93,148.36c-26.62,45.18-62.64,81.08-108.06,107.7-35.81,20.99-74.19,33.7-115.16,38.14l6.11-17.83c29.52-5.32,57.45-16.73,83.78-34.23,37.85-25.15,67.89-59.09,90.11-101.84,22.22-42.73,33.33-89.5,33.33-140.3s-11.11-97.68-33.33-140.67c-22.23-42.97-52.14-77.04-89.75-102.2-27.85-18.62-57.71-30.35-89.57-35.19l-6.76-17.47ZM603.53,18.62c-31.97,4.81-61.91,16.56-89.83,35.23-37.62,25.16-67.53,59.23-89.75,102.2-22.23,42.99-33.33,89.87-33.33,140.67s11.1,97.57,33.33,140.3c22.22,42.74,52.26,76.69,90.11,101.84,26.4,17.56,54.42,28.98,84.04,34.28l5.78,17.77c-40.95-4.45-79.31-17.15-115.09-38.13-45.42-26.62-81.45-62.51-108.07-107.7-26.62-45.17-39.93-94.63-39.93-148.36s13.3-103.3,39.93-148.73c26.62-45.42,62.64-81.44,108.07-108.06,37.46-21.95,77.75-34.86,120.86-38.7l-6.12,17.39Z"/>
      </g>
      <g>
        <path class="cls-1" d="M142.08,844.28c0,.81-.27,1.22-.81,1.22-2.43,0-6.35-.13-11.75-.41-5.14-.27-8.92-.4-11.35-.4-2.84,0-6.56.14-11.15.4-4.33.27-7.57.41-9.73.41-.54,0-.81-.41-.81-1.22s.27-1.22.81-1.22c5.54,0,9.53-.51,11.96-1.52,2.43-1.01,3.65-2.74,3.65-5.17,0-1.89-.75-4.53-2.23-7.9l-45.81-98.5,3.85-3.45-39.12,94.05c-1.89,4.6-2.84,8.38-2.84,11.35,0,3.92,1.62,6.76,4.86,8.51,3.24,1.76,8.31,2.64,15.2,2.64.67,0,1.02.4,1.02,1.22s-.34,1.22-1.02,1.22c-2.43,0-5.95-.13-10.54-.41-5.14-.27-9.6-.4-13.38-.4-3.38,0-7.37.14-11.96.4-4.06.27-7.37.41-9.93.41-.67,0-1.01-.41-1.01-1.22s.34-1.22,1.01-1.22c3.78,0,6.99-.67,9.63-2.03,2.64-1.35,5.13-3.78,7.5-7.3,2.36-3.51,4.9-8.51,7.6-15l42.36-101.95c.27-.41.71-.61,1.32-.61s.98.2,1.12.61l47.02,100.94c3.11,6.89,5.87,12.13,8.31,15.7,2.43,3.58,4.83,6.08,7.19,7.5,2.36,1.42,5.1,2.13,8.21,2.13.54,0,.81.4.81,1.22ZM42.97,783.68h52.49l1.42,3.65h-55.74l1.82-3.65Z"/>
        <path class="cls-1" d="M167.61,723.48l4.46.4-1.82,100.53c-.13,7.03,1.02,11.89,3.45,14.59,2.43,2.71,6.96,4.06,13.58,4.06.27,0,.41.4.41,1.22s-.14,1.22-.41,1.22c-3.78,0-6.69-.07-8.71-.2l-10.95-.2-9.93.2c-1.76.14-4.39.2-7.9.2-.27,0-.41-.41-.41-1.22s.13-1.22.41-1.22c5.67,0,9.69-1.39,12.06-4.16s3.61-7.6,3.75-14.49l2.02-100.94ZM305.44,844.28c0,.81-.2,1.22-.61,1.22-4.19,0-7.5-.07-9.93-.2l-13.58-.2-12.57.2c-2.03.14-4.86.2-8.51.2-.27,0-.4-.41-.4-1.22s.13-1.22.4-1.22c4.73,0,8.21-.37,10.44-1.12,2.23-.74,3.71-2.06,4.45-3.95.74-1.89.98-4.87.71-8.92l-3.65-99.92,5.87-7.5-53.1,122.42c-.27.54-.81.81-1.62.81-.68,0-1.29-.27-1.83-.81l-49.45-108.43c-2.16-5-4.96-8.65-8.41-10.95-3.44-2.29-7.6-3.44-12.47-3.44-.27,0-.4-.41-.4-1.22s.13-1.22.4-1.22l6.89.2c1.35.14,3.11.2,5.27.2s3.98-.07,5.48-.2c1.48-.13,2.63-.2,3.44-.2,1.89,0,3.38.65,4.46,1.93,1.08,1.29,2.7,4.16,4.86,8.61l46.41,100.33-5.27,8.51,49.86-114.31c.67-1.48,1.59-2.7,2.74-3.65,1.15-.94,2.26-1.42,3.34-1.42.54,0,1.42.07,2.64.2,1.22.14,2.91.2,5.07.2l9.12-.2c1.35-.13,3.44-.2,6.28-.2.27,0,.4.41.4,1.22s-.13,1.22-.4,1.22c-7.03,0-12,.91-14.9,2.74-2.91,1.82-4.29,5.44-4.16,10.84l3.85,94.25c.13,4.19.64,7.23,1.52,9.12.88,1.89,2.56,3.18,5.07,3.85,2.5.68,6.39,1.02,11.65,1.02.41,0,.61.4.61,1.22Z"/>
        <path class="cls-1" d="M317.2,844.28c0-.81.13-1.22.4-1.22,5.27,0,9.15-.34,11.65-1.02,2.5-.67,4.19-1.99,5.07-3.95.88-1.96,1.32-4.97,1.32-9.02v-93.84c0-4.06-.44-7.03-1.32-8.92-.88-1.89-2.57-3.21-5.07-3.96-2.5-.74-6.38-1.11-11.65-1.11-.27,0-.4-.41-.4-1.22s.13-1.22.4-1.22h80.26c1.22,0,1.83.61,1.83,1.83l.4,24.52c0,.4-.37.61-1.12.61s-1.12-.2-1.12-.61c0-6.89-1.82-12.37-5.47-16.42-3.65-4.06-8.45-6.08-14.39-6.08h-13.99c-5.14,0-8.92.34-11.35,1.02-2.43.68-4.09,1.96-4.97,3.85-.88,1.89-1.32,4.86-1.32,8.92v91.81c0,3.92.44,6.79,1.32,8.61s2.5,3.07,4.86,3.75c2.36.68,6.18,1.02,11.45,1.02h18.64c5.4,0,10.03-2.36,13.89-7.09,3.85-4.73,6.32-10.95,7.4-18.65,0-.4.4-.57,1.22-.5s1.22.3,1.22.71c-1.22,8.51-1.82,17.3-1.82,26.35,0,1.08-.24,1.86-.71,2.33-.48.47-1.32.71-2.54.71h-83.71c-.27,0-.4-.41-.4-1.22ZM386.11,785.1c-2.57-2.43-7.09-3.65-13.58-3.65h-31.21v-3.85h31.82c6.22,0,10.54-1.05,12.97-3.14,2.43-2.09,3.65-5.7,3.65-10.84,0-.27.41-.41,1.22-.41s1.22.14,1.22.41l-.2,16.01c0,3.92.07,6.82.2,8.71l.2,9.53c0,.27-.4.4-1.22.4s-1.22-.13-1.22-.4c0-6.08-1.29-10.34-3.85-12.77Z"/>
        <path class="cls-1" d="M500.11,725.61c5.6,4.93,8.41,11.45,8.41,19.56,0,7.03-2.06,13.48-6.18,19.36s-9.73,10.51-16.82,13.88c-7.09,3.38-14.76,5.07-23,5.07-.55,0-3.45-.2-8.72-.61v46.21c0,4.19.44,7.23,1.32,9.12.87,1.89,2.53,3.18,4.96,3.85,2.44.68,6.35,1.02,11.76,1.02.4,0,.61.4.61,1.22s-.2,1.22-.61,1.22c-4.06,0-7.3-.07-9.73-.2l-13.78-.2-13.38.2c-2.43.14-5.81.2-10.13.2-.27,0-.4-.41-.4-1.22s.13-1.22.4-1.22c5.4,0,9.36-.34,11.86-1.02,2.5-.67,4.22-1.99,5.17-3.95.95-1.96,1.42-4.97,1.42-9.02v-93.84c0-4.06-.44-7.03-1.32-8.92-.88-1.89-2.56-3.21-5.07-3.96-2.5-.74-6.38-1.11-11.65-1.11-.4,0-.61-.41-.61-1.22s.2-1.22.61-1.22l9.73.2c5.4.27,9.86.4,13.38.4,2.97,0,5.77-.07,8.41-.2s4.9-.27,6.79-.41c4.86-.4,9.19-.61,12.97-.61,10.14,0,18.01,2.47,23.62,7.4ZM489.57,727.94c-5.07-4.73-12.4-7.09-21.99-7.09-5.14,0-8.72.95-10.75,2.84-2.02,1.89-3.04,5.87-3.04,11.96v42.56c3.92.4,7.97.61,12.16.61,11.21,0,19.22-2.33,24.02-6.99,4.79-4.66,7.19-11.72,7.19-21.18,0-10.4-2.54-17.97-7.6-22.7ZM509.43,828.17c-9.8-11.55-21.58-27.53-35.37-47.93l9.73-3.04c11.89,16.9,21.82,30.03,29.79,39.42,7.97,9.39,15.03,16.15,21.18,20.27,6.15,4.12,12.19,6.18,18.14,6.18.4,0,.61.4.61,1.22s-.2,1.22-.61,1.22h-23.51c-3.51,0-10.17-5.78-19.96-17.33Z"/>
        <path class="cls-1" d="M590.51,838.2c.88,1.89,2.54,3.18,4.97,3.85,2.43.68,6.35,1.02,11.75,1.02.27,0,.41.4.41,1.22s-.14,1.22-.41,1.22c-4.05,0-7.23-.07-9.53-.2l-14.19-.2-13.58.2c-2.43.14-5.75.2-9.93.2-.41,0-.61-.41-.61-1.22s.2-1.22.61-1.22c5.27,0,9.15-.34,11.65-1.02,2.5-.67,4.22-1.99,5.17-3.95.95-1.96,1.42-4.97,1.42-9.02v-93.84c0-4.06-.47-7.03-1.42-8.92-.95-1.89-2.67-3.21-5.17-3.96-2.5-.74-6.39-1.11-11.65-1.11-.41,0-.61-.41-.61-1.22s.2-1.22.61-1.22l9.93.2c5.67.27,10.2.4,13.58.4,3.78,0,8.51-.13,14.19-.4l9.53-.2c.27,0,.41.41.41,1.22s-.14,1.22-.41,1.22c-5.27,0-9.16.4-11.65,1.22-2.5.81-4.19,2.2-5.07,4.16s-1.32,4.96-1.32,9.02v93.44c0,4.19.44,7.23,1.32,9.12Z"/>
        <path class="cls-1" d="M720.72,718.52c5.68,1.29,11.69,3.55,18.04,6.79.81.54,1.32.98,1.52,1.32s.37,1.39.51,3.14l2.43,23.11c0,.4-.37.64-1.12.71-.74.07-1.18-.1-1.32-.51-2.97-11.21-7.91-19.62-14.8-25.23-6.89-5.61-15.95-8.41-27.16-8.41-11.89,0-22.33,2.5-31.31,7.5-8.99,5-15.95,12.13-20.88,21.38-4.93,9.26-7.4,20.03-7.4,32.33,0,11.49,2.74,22.19,8.21,32.13,5.48,9.93,12.84,17.84,22.1,23.71,9.25,5.88,19.15,8.82,29.69,8.82,22.43,0,36.75-11.01,42.97-33.04,0-.27.33-.4,1.01-.4.95,0,1.42.2,1.42.61l-1.62,21.48c-.13,1.62-.34,2.64-.61,3.04-.27.41-.81.88-1.62,1.42-7.03,3.65-13.61,6.18-19.76,7.6-6.15,1.42-13.48,2.13-21.99,2.13-14.06,0-26.59-2.81-37.6-8.41-11.01-5.6-19.63-13.51-25.84-23.71-6.22-10.2-9.33-21.92-9.33-35.16s3.11-23.92,9.33-33.65c6.21-9.73,14.83-17.26,25.84-22.6,11.01-5.34,23.48-8.01,37.4-8.01,8.92,0,16.21.64,21.89,1.92Z"/>
        <path class="cls-1" d="M896.25,844.28c0,.81-.27,1.22-.81,1.22-2.43,0-6.35-.13-11.75-.41-5.14-.27-8.92-.4-11.35-.4-2.84,0-6.56.14-11.15.4-4.33.27-7.57.41-9.73.41-.54,0-.81-.41-.81-1.22s.27-1.22.81-1.22c5.54,0,9.53-.51,11.96-1.52,2.43-1.01,3.65-2.74,3.65-5.17,0-1.89-.75-4.53-2.23-7.9l-45.81-98.5,3.85-3.45-39.12,94.05c-1.89,4.6-2.84,8.38-2.84,11.35,0,3.92,1.62,6.76,4.86,8.51,3.24,1.76,8.31,2.64,15.2,2.64.67,0,1.02.4,1.02,1.22s-.34,1.22-1.02,1.22c-2.43,0-5.95-.13-10.54-.41-5.14-.27-9.6-.4-13.38-.4-3.38,0-7.37.14-11.96.4-4.06.27-7.37.41-9.93.41-.67,0-1.01-.41-1.01-1.22s.34-1.22,1.01-1.22c3.78,0,6.99-.67,9.63-2.03,2.64-1.35,5.13-3.78,7.5-7.3,2.36-3.51,4.9-8.51,7.6-15l42.36-101.95c.27-.41.71-.61,1.32-.61s.98.2,1.12.61l47.02,100.94c3.11,6.89,5.87,12.13,8.31,15.7,2.43,3.58,4.83,6.08,7.19,7.5,2.36,1.42,5.1,2.13,8.21,2.13.54,0,.81.4.81,1.22ZM797.14,783.68h52.49l1.42,3.65h-55.74l1.82-3.65Z"/>
        <path class="cls-1" d="M919.35,723.48l4.46.4v100.53c0,6.89,1.15,11.72,3.45,14.49,2.29,2.77,6.28,4.16,11.96,4.16.4,0,.61.4.61,1.22s-.2,1.22-.61,1.22c-3.24,0-5.75-.07-7.5-.2l-9.73-.2-9.93.2c-1.76.14-4.39.2-7.91.2-.27,0-.4-.41-.4-1.22s.13-1.22.4-1.22c5.81,0,9.8-1.35,11.96-4.06,2.16-2.7,3.24-7.57,3.24-14.59v-100.94ZM1020.29,848.33c-.68.13-1.15.07-1.42-.2l-91.61-112.69c-4.33-5.27-8.28-8.95-11.86-11.05-3.58-2.09-7.13-3.14-10.64-3.14-.4,0-.61-.41-.61-1.22s.2-1.22.61-1.22l7.3.2c1.49.14,3.58.2,6.28.2,2.29,0,4.18-.07,5.67-.2,1.49-.13,2.64-.2,3.45-.2.94,0,1.72.24,2.33.71s1.32,1.45,2.13,2.94c1.49,2.43,3.11,4.73,4.87,6.89l82.9,102.96,1.62,15.4c0,.27-.34.47-1.02.61ZM1021.3,847.73l-4.46-6.28v-101.34c0-6.89-1.08-11.76-3.24-14.59-2.17-2.84-6.08-4.26-11.76-4.26-.27,0-.4-.41-.4-1.22s.13-1.22.4-1.22l7.7.2c4.06.27,7.3.4,9.73.4,2.29,0,5.6-.13,9.93-.4l7.91-.2c.4,0,.61.41.61,1.22s-.2,1.22-.61,1.22c-5.81,0-9.9,1.42-12.26,4.26-2.37,2.84-3.55,7.7-3.55,14.59v107.62Z"/>
        <path class="cls-1" d="M1131.86,838.91c-10.88-6.01-19.22-14.12-25.03-24.32-5.81-10.2-8.72-21.38-8.72-33.55,0-13.1,3.28-24.52,9.83-34.25,6.55-9.73,15.54-17.19,26.96-22.4,11.42-5.2,24.22-7.8,38.41-7.8,7.43,0,14.25.75,20.47,2.23,6.21,1.49,11.48,3.58,15.81,6.29.94.54,1.48,1.01,1.62,1.42.13.41.27,1.42.4,3.04l2.44,22.7c0,.4-.37.67-1.12.81-.75.14-1.19,0-1.32-.4-2.97-11.21-7.67-19.52-14.09-24.93-6.42-5.4-15.44-8.11-27.06-8.11s-21.28,2.4-30.2,7.19c-8.92,4.8-15.95,11.62-21.08,20.47-5.14,8.85-7.7,19.22-7.7,31.11,0,11.22,2.33,21.89,6.99,32.03,4.66,10.13,11.82,18.44,21.48,24.93,9.66,6.49,21.58,9.73,35.77,9.73,10,0,17.06-1.92,21.18-5.77,4.12-3.85,6.18-10.23,6.18-19.15,0-7.02-.47-11.92-1.42-14.7-.95-2.76-2.97-4.63-6.08-5.57-3.11-.95-8.51-1.42-16.22-1.42-.81,0-1.22-.54-1.22-1.62,0-.4.1-.77.3-1.11s.44-.51.71-.51c10.4.68,18.78,1.01,25.13,1.01s12.57-.2,19.46-.61c.27,0,.51.17.71.51.2.34.3.64.3.91,0,.95-.34,1.42-1.02,1.42-3.51-.13-6.01.3-7.5,1.32-1.49,1.02-2.43,3.08-2.84,6.18-.41,3.11-.61,8.51-.61,16.21,0,6.08.23,10.41.71,12.97.47,2.57.71,4.19.71,4.86,0,.81-.13,1.35-.4,1.62s-.88.54-1.82.81c-16.35,3.65-30.27,5.47-41.75,5.47-14.73,0-27.53-3.01-38.41-9.02Z"/>
        <path class="cls-1" d="M1315.29,725.61c5.6,4.93,8.41,11.45,8.41,19.56,0,7.03-2.06,13.48-6.18,19.36s-9.73,10.51-16.82,13.88c-7.09,3.38-14.76,5.07-23,5.07-.55,0-3.45-.2-8.72-.61v46.21c0,4.19.44,7.23,1.32,9.12.87,1.89,2.53,3.18,4.96,3.85,2.44.68,6.35,1.02,11.76,1.02.4,0,.61.4.61,1.22s-.2,1.22-.61,1.22c-4.06,0-7.3-.07-9.73-.2l-13.78-.2-13.38.2c-2.43.14-5.81.2-10.13.2-.27,0-.4-.41-.4-1.22s.13-1.22.4-1.22c5.4,0,9.36-.34,11.86-1.02,2.5-.67,4.22-1.99,5.17-3.95.95-1.96,1.42-4.97,1.42-9.02v-93.84c0-4.06-.44-7.03-1.32-8.92-.88-1.89-2.56-3.21-5.07-3.96-2.5-.74-6.38-1.11-11.65-1.11-.4,0-.61-.41-.61-1.22s.2-1.22.61-1.22l9.73.2c5.4.27,9.86.4,13.38.4,2.97,0,5.77-.07,8.41-.2s4.9-.27,6.79-.41c4.86-.4,9.19-.61,12.97-.61,10.14,0,18.01,2.47,23.62,7.4ZM1304.75,727.94c-5.07-4.73-12.4-7.09-21.99-7.09-5.14,0-8.72.95-10.75,2.84-2.02,1.89-3.04,5.87-3.04,11.96v42.56c3.92.4,7.97.61,12.16.61,11.21,0,19.22-2.33,24.02-6.99,4.79-4.66,7.19-11.72,7.19-21.18,0-10.4-2.54-17.97-7.6-22.7ZM1324.61,828.17c-9.8-11.55-21.58-27.53-35.37-47.93l9.73-3.04c11.89,16.9,21.82,30.03,29.79,39.42,7.97,9.39,15.03,16.15,21.18,20.27s12.19,6.18,18.14,6.18c.4,0,.61.4.61,1.22s-.2,1.22-.61,1.22h-23.51c-3.51,0-10.17-5.78-19.96-17.33Z"/>
        <path class="cls-1" d="M1396.56,839.11c-9.8-5.87-17.36-13.85-22.7-23.92-5.34-10.06-8.01-21.04-8.01-32.94,0-13.91,3.51-25.84,10.54-35.77,7.02-9.93,16.04-17.4,27.06-22.4,11.01-5,22.26-7.5,33.75-7.5,12.84,0,24.12,3.01,33.85,9.02,9.73,6.02,17.19,13.96,22.4,23.82,5.2,9.87,7.8,20.34,7.8,31.42,0,12.29-3.24,23.58-9.73,33.85-6.48,10.27-15.17,18.38-26.04,24.32-10.88,5.95-22.67,8.92-35.37,8.92s-23.75-2.94-33.55-8.82ZM1463.35,837.19c7.7-4.46,13.78-11.01,18.24-19.66s6.69-18.98,6.69-31.01c0-12.7-2.46-24.02-7.39-33.95-4.94-9.93-11.9-17.67-20.88-23.21-8.98-5.54-19.42-8.31-31.31-8.31-15.68,0-27.9,4.86-36.68,14.59-8.78,9.73-13.17,22.97-13.17,39.72,0,12.57,2.46,24.09,7.4,34.56,4.93,10.48,11.86,18.75,20.77,24.83,8.92,6.08,19.05,9.12,30.41,9.12,9.59,0,18.24-2.23,25.94-6.69Z"/>
        <path class="cls-1" d="M1575.22,846.11c-1.08,0-1.82-.27-2.23-.81l-50.06-109.65c-2.3-5.27-4.76-8.98-7.4-11.15-2.64-2.16-6.05-3.24-10.23-3.24-.41,0-.61-.41-.61-1.22s.2-1.22.61-1.22l8.71.2c3.78.27,6.62.4,8.51.4,3.92,0,8.58-.13,13.99-.4l8.72-.2c.4,0,.61.41.61,1.22s-.2,1.22-.61,1.22c-4.19,0-7.37.47-9.53,1.42-2.17.95-3.24,2.64-3.24,5.07,0,1.35.54,3.31,1.62,5.88l46.62,100.53-6.89,8.71,27.36-67.29,2.84,4.06-26.55,65.67c-.14.54-.88.81-2.23.81ZM1696.63,720.04c0,.81-.2,1.22-.61,1.22-4.6,0-8.41.98-11.45,2.94-3.04,1.96-5.71,5.65-8.01,11.05l-44.59,110.05c-.14.54-.88.81-2.23.81-1.08,0-1.82-.27-2.23-.81l-50.06-109.65c-2.3-5.27-4.76-8.98-7.4-11.15-2.64-2.16-6.05-3.24-10.23-3.24-.41,0-.61-.41-.61-1.22s.2-1.22.61-1.22l8.71.2c3.78.27,6.62.4,8.51.4,2.84,0,6.15-.13,9.93-.4l5.67-.2c.4,0,.61.41.61,1.22s-.2,1.22-.61,1.22c-2.71,0-4.6.2-5.67.61-1.08.4-1.62,1.22-1.62,2.43s1.08,4.33,3.24,9.32l46.62,100.53-6.89,8.71,44.18-108.84c.95-2.02,1.42-3.98,1.42-5.87,0-2.43-1.25-4.19-3.75-5.27-2.5-1.08-6.66-1.62-12.47-1.62-.4,0-.61-.41-.61-1.22s.2-1.22.61-1.22l8.11.2c4.59.27,8.64.4,12.16.4,2.84,0,6.01-.13,9.53-.4l8.51-.2c.4,0,.61.41.61,1.22ZM1620.63,726.93c0-2.03-.78-3.48-2.33-4.36s-4.02-1.32-7.4-1.32c-.27,0-.4-.41-.4-1.22s.13-1.22.4-1.22l5.67.2c2.7.27,5.27.4,7.7.4,2.7,0,5.81-.13,9.32-.4l8.72-.2c.27,0,.4.41.4,1.22s-.14,1.22-.4,1.22c-4.6,0-8.45.98-11.55,2.94-3.11,1.96-5.75,5.65-7.91,11.05l-18.04,44.39-2.84-4.06,16.82-41.55c1.22-2.84,1.82-5.2,1.82-7.09Z"/>
        <path class="cls-1" d="M1718.52,723.48l4.46.4v100.53c0,6.89,1.15,11.72,3.45,14.49,2.29,2.77,6.28,4.16,11.96,4.16.4,0,.61.4.61,1.22s-.2,1.22-.61,1.22c-3.24,0-5.75-.07-7.5-.2l-9.73-.2-9.93.2c-1.76.14-4.39.2-7.91.2-.27,0-.4-.41-.4-1.22s.13-1.22.4-1.22c5.81,0,9.8-1.35,11.96-4.06,2.16-2.7,3.24-7.57,3.24-14.59v-100.94ZM1819.46,848.33c-.68.13-1.15.07-1.42-.2l-91.61-112.69c-4.33-5.27-8.28-8.95-11.86-11.05-3.58-2.09-7.13-3.14-10.64-3.14-.4,0-.61-.41-.61-1.22s.2-1.22.61-1.22l7.3.2c1.49.14,3.58.2,6.28.2,2.29,0,4.18-.07,5.67-.2,1.49-.13,2.64-.2,3.45-.2.94,0,1.72.24,2.33.71s1.32,1.45,2.13,2.94c1.49,2.43,3.11,4.73,4.87,6.89l82.9,102.96,1.62,15.4c0,.27-.34.47-1.02.61ZM1820.47,847.73l-4.46-6.28v-101.34c0-6.89-1.08-11.76-3.24-14.59-2.17-2.84-6.08-4.26-11.76-4.26-.27,0-.4-.41-.4-1.22s.13-1.22.4-1.22l7.7.2c4.06.27,7.3.4,9.73.4,2.29,0,5.6-.13,9.93-.4l7.91-.2c.4,0,.61.41.61,1.22s-.2,1.22-.61,1.22c-5.81,0-9.9,1.42-12.26,4.26-2.37,2.84-3.55,7.7-3.55,14.59v107.62Z"/>
        <path class="cls-1" d="M1934.37,845.7c-1.89-.13-4.23-.27-6.99-.4-2.77-.13-5.85-.2-9.22-.2l-13.37.2c-2.44.14-5.81.2-10.14.2-.27,0-.4-.41-.4-1.22s.13-1.22.4-1.22c5.27,0,9.16-.34,11.66-1.02,2.5-.67,4.22-1.99,5.17-3.95.95-1.96,1.42-4.97,1.42-9.02v-93.84c0-4.06-.44-7.03-1.32-8.92-.88-1.89-2.57-3.21-5.07-3.96-2.5-.74-6.38-1.11-11.65-1.11-.27,0-.4-.41-.4-1.22s.13-1.22.4-1.22l9.93.2c5.67.27,10.13.4,13.37.4,4.73,0,9.53-.2,14.39-.61,5.94-.27,10-.4,12.16-.4,14.19,0,26.75,2.71,37.7,8.11,10.95,5.41,19.42,12.77,25.44,22.09,6.01,9.33,9.02,19.8,9.02,31.42,0,13.11-3.14,24.69-9.43,34.76-6.28,10.07-14.69,17.84-25.23,23.31-10.54,5.47-22.09,8.21-34.66,8.21-3.92,0-8.31-.2-13.17-.61ZM1975.72,836.78c8.78-4.59,15.64-11.35,20.57-20.27,4.93-8.92,7.4-19.59,7.4-32.02s-2.33-22.63-6.99-32.23c-4.66-9.59-11.35-17.2-20.06-22.8-8.71-5.6-18.75-8.41-30.1-8.41-5.95,0-10.51.34-13.68,1.01-3.18.68-5.51,2.06-6.99,4.16-1.49,2.1-2.23,5.24-2.23,9.43v91.21c0,4.06.61,7.3,1.82,9.73,1.22,2.43,3.38,4.22,6.49,5.37,3.11,1.15,7.63,1.72,13.58,1.72,11.35,0,21.42-2.3,30.2-6.89Z"/>
        <path class="cls-1" d="M2066.21,838.2c.88,1.89,2.54,3.18,4.97,3.85,2.43.68,6.35,1.02,11.75,1.02.27,0,.41.4.41,1.22s-.14,1.22-.41,1.22c-4.05,0-7.23-.07-9.53-.2l-14.19-.2-13.58.2c-2.43.14-5.75.2-9.93.2-.41,0-.61-.41-.61-1.22s.2-1.22.61-1.22c5.27,0,9.15-.34,11.65-1.02,2.5-.67,4.22-1.99,5.17-3.95.95-1.96,1.42-4.97,1.42-9.02v-93.84c0-4.06-.47-7.03-1.42-8.92-.95-1.89-2.67-3.21-5.17-3.96-2.5-.74-6.39-1.11-11.65-1.11-.41,0-.61-.41-.61-1.22s.2-1.22.61-1.22l9.93.2c5.67.27,10.2.4,13.58.4,3.78,0,8.51-.13,14.19-.4l9.53-.2c.27,0,.41.41.41,1.22s-.14,1.22-.41,1.22c-5.27,0-9.16.4-11.65,1.22-2.5.81-4.19,2.2-5.07,4.16-.88,1.96-1.32,4.96-1.32,9.02v93.44c0,4.19.44,7.23,1.32,9.12Z"/>
        <path class="cls-1" d="M2233.52,844.28c0,.81-.27,1.22-.81,1.22-2.43,0-6.35-.13-11.75-.41-5.14-.27-8.92-.4-11.35-.4-2.84,0-6.56.14-11.15.4-4.33.27-7.57.41-9.73.41-.54,0-.81-.41-.81-1.22s.27-1.22.81-1.22c5.54,0,9.53-.51,11.96-1.52,2.43-1.01,3.65-2.74,3.65-5.17,0-1.89-.75-4.53-2.23-7.9l-45.81-98.5,3.85-3.45-39.12,94.05c-1.89,4.6-2.84,8.38-2.84,11.35,0,3.92,1.62,6.76,4.86,8.51,3.24,1.76,8.31,2.64,15.2,2.64.67,0,1.02.4,1.02,1.22s-.34,1.22-1.02,1.22c-2.43,0-5.95-.13-10.54-.41-5.14-.27-9.6-.4-13.38-.4-3.38,0-7.37.14-11.96.4-4.06.27-7.37.41-9.93.41-.67,0-1.01-.41-1.01-1.22s.34-1.22,1.01-1.22c3.78,0,6.99-.67,9.63-2.03,2.64-1.35,5.13-3.78,7.5-7.3,2.36-3.51,4.9-8.51,7.6-15l42.36-101.95c.27-.41.71-.61,1.32-.61s.98.2,1.12.61l47.02,100.94c3.11,6.89,5.87,12.13,8.31,15.7,2.43,3.58,4.83,6.08,7.19,7.5,2.36,1.42,5.1,2.13,8.21,2.13.54,0,.81.4.81,1.22ZM2134.41,783.68h52.49l1.42,3.65h-55.74l1.82-3.65Z"/>
        <path class="cls-1" d="M2259.06,723.48l4.46.4-1.82,100.53c-.13,7.03,1.02,11.89,3.45,14.59,2.43,2.71,6.96,4.06,13.58,4.06.27,0,.41.4.41,1.22s-.14,1.22-.41,1.22c-3.78,0-6.69-.07-8.71-.2l-10.95-.2-9.93.2c-1.76.14-4.39.2-7.9.2-.27,0-.41-.41-.41-1.22s.13-1.22.41-1.22c5.67,0,9.69-1.39,12.06-4.16s3.61-7.6,3.75-14.49l2.02-100.94ZM2396.88,844.28c0,.81-.2,1.22-.61,1.22-4.19,0-7.5-.07-9.93-.2l-13.58-.2-12.57.2c-2.03.14-4.86.2-8.51.2-.27,0-.4-.41-.4-1.22s.13-1.22.4-1.22c4.73,0,8.21-.37,10.44-1.12,2.23-.74,3.71-2.06,4.45-3.95.74-1.89.98-4.87.71-8.92l-3.65-99.92,5.87-7.5-53.1,122.42c-.27.54-.81.81-1.62.81-.68,0-1.29-.27-1.83-.81l-49.45-108.43c-2.16-5-4.96-8.65-8.41-10.95-3.44-2.29-7.6-3.44-12.47-3.44-.27,0-.4-.41-.4-1.22s.13-1.22.4-1.22l6.89.2c1.35.14,3.11.2,5.27.2s3.98-.07,5.48-.2c1.48-.13,2.63-.2,3.44-.2,1.89,0,3.38.65,4.46,1.93,1.08,1.29,2.7,4.16,4.86,8.61l46.41,100.33-5.27,8.51,49.86-114.31c.67-1.48,1.59-2.7,2.74-3.65,1.15-.94,2.26-1.42,3.34-1.42.54,0,1.42.07,2.64.2,1.22.14,2.91.2,5.07.2l9.12-.2c1.35-.13,3.44-.2,6.28-.2.27,0,.4.41.4,1.22s-.13,1.22-.4,1.22c-7.03,0-12,.91-14.9,2.74-2.91,1.82-4.29,5.44-4.16,10.84l3.85,94.25c.13,4.19.64,7.23,1.52,9.12.88,1.89,2.56,3.18,5.07,3.85,2.5.68,6.39,1.02,11.65,1.02.41,0,.61.4.61,1.22Z"/>
        <path class="cls-1" d="M2440.76,839.11c-9.8-5.87-17.36-13.85-22.7-23.92-5.34-10.06-8.01-21.04-8.01-32.94,0-13.91,3.51-25.84,10.54-35.77,7.02-9.93,16.04-17.4,27.06-22.4,11.01-5,22.26-7.5,33.75-7.5,12.84,0,24.12,3.01,33.85,9.02,9.73,6.02,17.19,13.96,22.4,23.82,5.2,9.87,7.8,20.34,7.8,31.42,0,12.29-3.24,23.58-9.73,33.85-6.48,10.27-15.17,18.38-26.04,24.32-10.88,5.95-22.67,8.92-35.37,8.92s-23.75-2.94-33.55-8.82ZM2507.55,837.19c7.7-4.46,13.78-11.01,18.24-19.66,4.46-8.65,6.69-18.98,6.69-31.01,0-12.7-2.46-24.02-7.39-33.95-4.94-9.93-11.9-17.67-20.88-23.21-8.98-5.54-19.42-8.31-31.31-8.31-15.68,0-27.9,4.86-36.68,14.59-8.78,9.73-13.17,22.97-13.17,39.72,0,12.57,2.46,24.09,7.4,34.56,4.93,10.48,11.86,18.75,20.77,24.83,8.92,6.08,19.05,9.12,30.41,9.12,9.59,0,18.24-2.23,25.94-6.69Z"/>
        <path class="cls-1" d="M2578.48,723.48l4.46.4v100.53c0,6.89,1.15,11.72,3.45,14.49,2.29,2.77,6.28,4.16,11.96,4.16.4,0,.61.4.61,1.22s-.2,1.22-.61,1.22c-3.24,0-5.75-.07-7.5-.2l-9.73-.2-9.93.2c-1.76.14-4.39.2-7.91.2-.27,0-.4-.41-.4-1.22s.13-1.22.4-1.22c5.81,0,9.8-1.35,11.96-4.06,2.16-2.7,3.24-7.57,3.24-14.59v-100.94ZM2679.42,848.33c-.68.13-1.15.07-1.42-.2l-91.61-112.69c-4.33-5.27-8.28-8.95-11.86-11.05-3.58-2.09-7.13-3.14-10.64-3.14-.4,0-.61-.41-.61-1.22s.2-1.22.61-1.22l7.3.2c1.49.14,3.58.2,6.28.2,2.29,0,4.18-.07,5.67-.2,1.49-.13,2.64-.2,3.45-.2.94,0,1.72.24,2.33.71s1.32,1.45,2.13,2.94c1.49,2.43,3.11,4.73,4.87,6.89l82.9,102.96,1.62,15.4c0,.27-.34.47-1.02.61ZM2680.43,847.73l-4.46-6.28v-101.34c0-6.89-1.08-11.76-3.24-14.59-2.17-2.84-6.08-4.26-11.76-4.26-.27,0-.4-.41-.4-1.22s.13-1.22.4-1.22l7.7.2c4.06.27,7.3.4,9.73.4,2.29,0,5.6-.13,9.93-.4l7.91-.2c.4,0,.61.41.61,1.22s-.2,1.22-.61,1.22c-5.81,0-9.9,1.42-12.26,4.26-2.37,2.84-3.55,7.7-3.55,14.59v107.62Z"/>
        <path class="cls-1" d="M2747.72,845.7c-1.89-.13-4.23-.27-6.99-.4-2.77-.13-5.85-.2-9.22-.2l-13.37.2c-2.44.14-5.81.2-10.14.2-.27,0-.4-.41-.4-1.22s.13-1.22.4-1.22c5.27,0,9.16-.34,11.66-1.02,2.5-.67,4.22-1.99,5.17-3.95.95-1.96,1.42-4.97,1.42-9.02v-93.84c0-4.06-.44-7.03-1.32-8.92-.88-1.89-2.57-3.21-5.07-3.96-2.5-.74-6.38-1.11-11.65-1.11-.27,0-.4-.41-.4-1.22s.13-1.22.4-1.22l9.93.2c5.67.27,10.13.4,13.37.4,4.73,0,9.53-.2,14.39-.61,5.94-.27,10-.4,12.16-.4,14.19,0,26.75,2.71,37.7,8.11,10.95,5.41,19.42,12.77,25.44,22.09,6.01,9.33,9.02,19.8,9.02,31.42,0,13.11-3.14,24.69-9.43,34.76-6.28,10.07-14.69,17.84-25.23,23.31-10.54,5.47-22.09,8.21-34.66,8.21-3.92,0-8.31-.2-13.17-.61ZM2789.07,836.78c8.78-4.59,15.64-11.35,20.57-20.27,4.93-8.92,7.4-19.59,7.4-32.02s-2.33-22.63-6.99-32.23c-4.66-9.59-11.35-17.2-20.06-22.8-8.71-5.6-18.75-8.41-30.1-8.41-5.95,0-10.51.34-13.68,1.01-3.18.68-5.51,2.06-6.99,4.16-1.49,2.1-2.23,5.24-2.23,9.43v91.21c0,4.06.61,7.3,1.82,9.73,1.22,2.43,3.38,4.22,6.49,5.37,3.11,1.15,7.63,1.72,13.58,1.72,11.35,0,21.42-2.3,30.2-6.89Z"/>
        <path class="cls-1" d="M2871.15,757.33c2.56,3.92,5.71,7.19,9.42,9.83,3.72,2.64,8.88,5.91,15.51,9.83,7.02,4.19,12.46,7.67,16.31,10.44s7.16,6.32,9.93,10.64c2.76,4.33,4.16,9.52,4.16,15.6s-1.56,12.13-4.66,17.33c-3.11,5.2-7.74,9.32-13.89,12.37-6.15,3.04-13.68,4.56-22.6,4.56-4.73,0-9.22-.51-13.48-1.52-4.26-1.02-8.95-2.8-14.09-5.37-.68-.41-1.12-.88-1.32-1.42-.2-.54-.37-1.35-.51-2.43l-3.04-26.35v-.2c0-.54.33-.85,1.01-.91.67-.07,1.08.17,1.22.71,1.35,9.32,4.93,17.43,10.74,24.32,5.81,6.89,13.78,10.33,23.92,10.33,7.16,0,13.21-1.96,18.14-5.87,4.93-3.92,7.4-10.07,7.4-18.44,0-6.08-1.35-11.32-4.05-15.71-2.71-4.39-5.98-8.04-9.83-10.95-3.85-2.9-9.09-6.31-15.71-10.23-6.49-3.78-11.59-7.09-15.31-9.93-3.72-2.84-6.89-6.39-9.53-10.64-2.63-4.26-3.95-9.36-3.95-15.31,0-6.75,1.72-12.49,5.17-17.22,3.44-4.73,7.94-8.28,13.48-10.64,5.54-2.36,11.48-3.55,17.84-3.55,7.43,0,15.13,1.62,23.1,4.86,2.03.81,3.04,1.96,3.04,3.45l1.83,21.48c0,.54-.37.81-1.12.81s-1.19-.27-1.32-.81c-.54-7.02-3.17-13.31-7.9-18.85-4.73-5.54-11.49-8.31-20.27-8.31-8.11,0-14.06,2.36-17.84,7.09-3.78,4.73-5.67,10.4-5.67,17.02,0,5.4,1.28,10.07,3.85,13.99Z"/>
      </g>
    </g>
  </g>
</svg>